<?xml version="1.0" encoding="UTF-8" standalone="no"?>
<!-- Created with Inkscape (http://www.inkscape.org/) -->

<svg
   xmlns:dc="http://purl.org/dc/elements/1.1/"
   xmlns:cc="http://creativecommons.org/ns#"
   xmlns:rdf="http://www.w3.org/1999/02/22-rdf-syntax-ns#"
   xmlns:svg="http://www.w3.org/2000/svg"
   xmlns="http://www.w3.org/2000/svg"
   xmlns:sodipodi="http://sodipodi.sourceforge.net/DTD/sodipodi-0.dtd"
   xmlns:inkscape="http://www.inkscape.org/namespaces/inkscape"
   width="5.6444435mm"
   height="5.6444597mm"
   viewBox="0 0 19.999997 20.000054"
   id="svg3400"
   version="1.1"
   inkscape:version="0.91 r13725"
   sodipodi:docname="shapla-48.svg">
  <defs
     id="defs3402" />
  <sodipodi:namedview
     id="base"
     pagecolor="#ffffff"
     bordercolor="#666666"
     borderopacity="1.0"
     inkscape:pageopacity="0.0"
     inkscape:pageshadow="2"
     inkscape:zoom="7.9195959"
     inkscape:cx="72.434621"
     inkscape:cy="-19.682751"
     inkscape:document-units="px"
     inkscape:current-layer="layer1"
     showgrid="false"
     fit-margin-top="0"
     fit-margin-left="0"
     fit-margin-right="0"
     fit-margin-bottom="0"
     inkscape:window-width="1920"
     inkscape:window-height="1011"
     inkscape:window-x="0"
     inkscape:window-y="24"
     inkscape:window-maximized="1" />
  <metadata
     id="metadata3405">
    <rdf:RDF>
      <cc:Work
         rdf:about="">
        <dc:format>image/svg+xml</dc:format>
        <dc:type
           rdf:resource="http://purl.org/dc/dcmitype/StillImage" />
        <dc:title></dc:title>
      </cc:Work>
    </rdf:RDF>
  </metadata>
  <g
     inkscape:label="Layer 1"
     inkscape:groupmode="layer"
     id="layer1"
     transform="translate(-367.14283,-448.07623)">
    <path
      fill="#555D66"
       d="m 374.36658,467.95289 c -1.55464,-0.43669 -3.36183,-1.65371 -4.22517,-2.84536 -0.4411,-0.60883 -1.38644,-2.36038 -1.73241,-3.20982 -0.58327,-1.43209 -0.98684,-2.87477 -1.16412,-4.16152 -0.15574,-1.13037 -0.15989,-1.09931 0.17714,-1.32317 0.68398,-0.45431 1.55636,-0.61409 2.4805,-0.45431 l 0.30049,0.0519 0.0264,0.54397 c 0.0595,1.2263 0.11935,1.99386 0.201,2.57825 0.12801,0.91615 0.42893,2.32386 0.64458,3.01535 0.21022,0.67411 0.80237,1.87009 1.27823,2.58172 0.98612,1.4747 2.28289,2.69062 3.40676,3.19437 l 0.31465,0.14103 -0.65176,4.2e-4 c -0.35847,4e-4 -0.83379,-0.0505 -1.05629,-0.11305 z m 4.24268,-0.0798 c 1.41597,-0.65889 2.91012,-2.2767 3.96045,-4.28824 0.48903,-0.93657 0.71964,-1.62057 0.99139,-2.94059 0.29505,-1.4332 0.36235,-2.03017 0.47539,-4.21663 l 0.0219,-0.42414 0.52545,-0.0601 c 0.94449,-0.10809 1.77473,0.0895 2.39624,0.57017 l 0.16275,0.12589 -0.0422,0.43529 c -0.0613,0.63315 -0.32146,2.01982 -0.50082,2.66991 -0.64013,2.32012 -1.95668,4.90449 -3.11817,6.12092 -0.40167,0.42067 -1.37423,1.14629 -1.92332,1.43496 -0.85793,0.45103 -2.1166,0.7866 -2.90866,0.77548 l -0.46249,-0.007 0.42205,-0.19639 z m -2.51965,-0.431 c -0.008,-0.0354 -0.17865,-0.16224 -0.37869,-0.28179 -0.69946,-0.41802 -1.73272,-1.3482 -2.49288,-2.2442 -1.46308,-1.72451 -2.50169,-5.01983 -2.52873,-8.02319 l -0.008,-0.94617 0.29217,-0.026 c 0.47396,-0.0422 0.96388,0.12968 1.76343,0.61868 0.86654,0.52997 0.77616,0.32707 0.81764,1.83555 0.0558,2.02833 0.32908,3.51942 0.95247,5.19653 0.36267,0.97567 1.03439,2.48019 1.40693,3.15123 0.17518,0.31555 0.31852,0.621 0.31852,0.67878 0,0.11328 -0.11764,0.14685 -0.14234,0.0406 z m 1.97084,-0.001 c -0.0636,-0.0244 0.0165,-0.21752 0.36014,-0.86761 0.755,-1.42844 1.42992,-3.07829 1.7694,-4.32532 0.31555,-1.15912 0.46571,-2.22113 0.51396,-3.63475 0.0145,-0.42604 0.0369,-0.96476 0.0497,-1.19716 l 0.0233,-0.42254 0.52556,-0.33407 c 0.89353,-0.56797 1.15943,-0.67892 1.7504,-0.73035 l 0.55062,-0.0479 0,0.73188 c -4.2e-4,2.34281 -0.41811,4.26045 -1.37905,6.33382 -0.78137,1.6859 -2.17298,3.31897 -3.50514,4.11334 -0.29257,0.17445 -0.54205,0.33855 -0.55442,0.36465 -0.0123,0.0261 -0.0593,0.0333 -0.10429,0.016 z m -1.36265,-0.42177 c -0.35874,-0.43874 -0.89924,-1.47465 -1.17877,-2.25919 -0.47188,-1.3244 -0.54238,-2.68935 -0.18465,-3.57504 0.28291,-0.70043 0.84793,-0.8367 1.42933,-0.34474 0.36843,0.31175 0.35205,0.3138 0.97402,-0.1219 0.23949,-0.16777 0.37044,-0.21221 0.54828,-0.18607 0.41509,0.061 0.76751,0.68246 0.87631,1.54523 0.14379,1.14024 -0.33361,2.86235 -1.20775,4.35663 -0.59213,1.01222 -0.82058,1.11857 -1.25677,0.58508 z m -2.24736,-4.7254 c -0.20045,-0.48564 -0.31383,-0.92924 -0.43808,-1.71404 -0.18672,-1.17945 -0.26764,-3.00772 -0.13659,-3.08653 0.10179,-0.0612 0.76971,0.844 1.20529,1.63352 l 0.45419,0.82324 -0.13485,0.20446 c -0.47787,0.72453 -0.57271,0.89737 -0.65561,1.19481 -0.0509,0.1825 -0.1062,0.54647 -0.12297,0.80883 l -0.0305,0.47703 -0.14089,-0.34132 z m 5.22642,0.15296 c -0.0159,-0.0756 -0.029,-0.23628 -0.0292,-0.35702 -10e-4,-0.56756 -0.23887,-1.14904 -0.80621,-1.97184 l -0.10994,-0.15946 0.44968,-0.81681 c 0.43085,-0.78262 0.95245,-1.50269 1.18194,-1.63168 l 0.10821,-0.0608 -0.0272,1.01754 c -0.0417,1.55974 -0.29641,3.11747 -0.63516,3.88399 -0.0877,0.19846 -0.10758,0.21292 -0.13206,0.0961 z m -3.0062,-2.41077 c -0.21606,-0.16773 -0.39304,-0.34651 -0.3933,-0.3973 -0.002,-0.40966 0.55519,-2.77705 0.7626,-3.23984 l 0.0922,-0.20569 0.0944,0.20569 c 0.23307,0.50771 0.78004,2.86806 0.74908,3.23249 -0.009,0.11151 -0.12485,0.23392 -0.41085,0.43591 -0.21872,0.15447 -0.42099,0.27925 -0.44949,0.27727 -0.0285,-0.002 -0.22859,-0.14081 -0.44465,-0.30853 z m -1.04173,-0.97157 c -0.32282,-0.70376 -0.82405,-1.45533 -1.34653,-2.01905 l -0.39884,-0.4303 0.0266,-0.46603 c 0.0592,-1.03664 0.42916,-2.6813 0.79235,-3.52233 l 0.18701,-0.43307 0.21049,0.22285 c 0.61967,0.65605 1.42702,1.89326 1.66547,2.5522 l 0.13712,0.37895 -0.11265,0.40694 c -0.062,0.22382 -0.19577,0.65473 -0.29734,0.95757 -0.25936,0.77329 -0.39043,1.34156 -0.5046,2.18772 l -0.0988,0.73206 -0.26031,-0.56751 z m 2.66025,-0.12815 c -0.0804,-0.71209 -0.2998,-1.60179 -0.70503,-2.85956 -0.21834,-0.67767 -0.22161,-0.69766 -0.15356,-0.93854 0.16216,-0.574 0.88316,-1.71926 1.64036,-2.60562 l 0.28493,-0.33353 0.16481,0.33385 c 0.19203,0.38898 0.52779,1.54419 0.66307,2.28136 0.0518,0.28237 0.12065,0.79987 0.15296,1.15 l 0.0587,0.63659 -0.3947,0.42692 c -0.55375,0.59897 -0.86977,1.06375 -1.27963,1.88203 l -0.3549,0.70853 -0.077,-0.68203 z m -5.45085,-3.07969 c -0.70284,-0.42079 -1.17082,-0.60522 -1.69682,-0.66873 l -0.3933,-0.0475 4.2e-4,-0.41977 c 0.001,-1.00218 0.25589,-2.54062 0.64103,-3.87536 l 0.18993,-0.65821 0.22475,0.0265 c 0.35334,0.0417 1.01943,0.31439 1.52707,0.62533 0.41773,0.25585 1.04234,0.76801 1.17575,0.96407 0.0358,0.0526 -0.0226,0.27516 -0.19707,0.75153 -0.28283,0.77205 -0.3478,1.02616 -0.62071,2.42805 -0.10822,0.55592 -0.21254,1.05872 -0.23183,1.11735 -0.0274,0.0831 -0.16371,0.0296 -0.6194,-0.24326 z m 7.84488,-0.34936 c -0.32812,-1.68063 -0.47612,-2.29345 -0.70507,-2.91956 -0.13363,-0.36544 -0.23256,-0.71401 -0.21986,-0.77461 0.0328,-0.15681 0.70117,-0.70238 1.27052,-1.0372 0.47562,-0.27969 0.98057,-0.48775 1.43088,-0.58958 l 0.22709,-0.0514 0.25332,0.93109 c 0.37661,1.38428 0.57354,2.62401 0.57354,3.61073 0,0.46337 0.0174,0.44669 -0.55732,0.53318 -0.42204,0.0635 -1.04574,0.33342 -1.67604,0.72533 l -0.4579,0.2847 -0.13916,-0.71273 z m -3.93435,-1.79865 c -0.19778,-0.3004 -0.64862,-0.89213 -1.00188,-1.31496 l -0.6423,-0.76879 0.14497,-0.38979 c 0.27431,-0.7376 1.47416,-2.80474 1.81644,-3.12944 0.0785,-0.0745 0.13962,-0.0236 0.40454,0.33689 0.36851,0.50146 1.49086,2.53871 1.60543,2.91414 l 0.0798,0.26141 -0.64163,0.77735 c -0.3529,0.42755 -0.80123,1.02192 -0.99629,1.32084 -0.19506,0.29891 -0.36699,0.54236 -0.38206,0.541 -0.0151,-10e-4 -0.18923,-0.24826 -0.387,-0.54865 z"
       id="path3338"
       inkscape:connector-curvature="0" />
  </g>
</svg>
