<?xml version="1.0" encoding="UTF-8" standalone="no"?>
<!-- Created with Inkscape (http://www.inkscape.org/) -->

<svg
   xmlns:dc="http://purl.org/dc/elements/1.1/"
   xmlns:cc="http://creativecommons.org/ns#"
   xmlns:rdf="http://www.w3.org/1999/02/22-rdf-syntax-ns#"
   xmlns:svg="http://www.w3.org/2000/svg"
   xmlns="http://www.w3.org/2000/svg"
   xmlns:sodipodi="http://sodipodi.sourceforge.net/DTD/sodipodi-0.dtd"
   xmlns:inkscape="http://www.inkscape.org/namespaces/inkscape"
   width="11.28888mm"
   height="11.288985mm"
   viewBox="0 0 39.99997 40.000341"
   id="svg3400"
   version="1.1"
   inkscape:version="0.91 r13725"
   sodipodi:docname="shapla-48.svg">
  <defs
     id="defs3402" />
  <sodipodi:namedview
     id="base"
     pagecolor="#ffffff"
     bordercolor="#666666"
     borderopacity="1.0"
     inkscape:pageopacity="0.0"
     inkscape:pageshadow="2"
     inkscape:zoom="7.9195959"
     inkscape:cx="82.434604"
     inkscape:cy="-9.6826299"
     inkscape:document-units="px"
     inkscape:current-layer="layer1"
     showgrid="false"
     fit-margin-top="0"
     fit-margin-left="0"
     fit-margin-right="0"
     fit-margin-bottom="0"
     inkscape:window-width="1920"
     inkscape:window-height="1011"
     inkscape:window-x="0"
     inkscape:window-y="24"
     inkscape:window-maximized="1" />
  <metadata
     id="metadata3405">
    <rdf:RDF>
      <cc:Work
         rdf:about="">
        <dc:format>image/svg+xml</dc:format>
        <dc:type
           rdf:resource="http://purl.org/dc/dcmitype/StillImage" />
        <dc:title></dc:title>
      </cc:Work>
    </rdf:RDF>
  </metadata>
  <g
     inkscape:label="Layer 1"
     inkscape:groupmode="layer"
     id="layer1"
     transform="translate(-357.14285,-438.07606)">
    <path
      fill="#555D66"
       d="m 371.59033,477.82972 c -3.10928,-0.87339 -6.72365,-3.30745 -8.45034,-5.69076 -0.88219,-1.21767 -2.77288,-4.7208 -3.46481,-6.41971 -1.16655,-2.8642 -1.97368,-5.74959 -2.32824,-8.3231 -0.31147,-2.26076 -0.31978,-2.19864 0.35427,-2.64636 1.36797,-0.90863 3.11273,-1.2282 4.961,-0.90864 l 0.60098,0.10391 0.0528,1.08794 c 0.11902,2.45262 0.23871,3.98776 0.40201,5.15654 0.25601,1.83233 0.85785,4.64777 1.28915,6.03076 0.42045,1.34823 1.60474,3.74022 2.55647,5.16349 1.97224,2.94942 4.56576,5.38127 6.81351,6.38879 l 0.62929,0.28207 -1.30351,8.3e-4 c -0.71694,8e-4 -1.66759,-0.10111 -2.11259,-0.2261 z m 8.48536,-0.15963 c 2.83193,-1.31778 5.82023,-4.55344 7.92088,-8.57654 0.97807,-1.87317 1.43929,-3.24118 1.98279,-5.88123 0.5901,-2.86643 0.7247,-4.06038 0.95078,-8.43334 l 0.0438,-0.84829 1.05089,-0.12027 c 1.88899,-0.21619 3.54947,0.17891 4.79248,1.14035 l 0.32551,0.25178 -0.0844,0.87058 c -0.12269,1.26631 -0.64292,4.03968 -1.00165,5.33987 -1.28025,4.64028 -3.91335,9.80906 -6.23634,12.24195 -0.80334,0.84135 -2.74846,2.29259 -3.84664,2.86993 -1.71585,0.90208 -4.23318,1.57323 -5.8173,1.55098 l -0.92499,-0.013 0.8441,-0.39279 z m -5.0393,-0.86199 c -0.0165,-0.0708 -0.35731,-0.3245 -0.75739,-0.5636 -1.39891,-0.83604 -3.46543,-2.69642 -4.98575,-4.48843 -2.92615,-3.44906 -5.00337,-10.03974 -5.05746,-16.04652 l -0.017,-1.89236 0.58434,-0.0521 c 0.94792,-0.0844 1.92776,0.25936 3.52687,1.23738 1.73307,1.05995 1.55231,0.65415 1.63527,3.67112 0.11156,4.05671 0.65816,7.0389 1.90494,10.39315 0.72534,1.95137 2.06878,4.96042 2.81386,6.30252 0.35036,0.6311 0.63703,1.24201 0.63703,1.35757 0,0.22657 -0.23527,0.2937 -0.28468,0.0813 z m 3.94167,-0.002 c -0.12723,-0.0488 0.0331,-0.43505 0.72028,-1.73524 1.51001,-2.8569 2.85985,-6.15663 3.5388,-8.65072 0.6311,-2.31825 0.93143,-4.44229 1.02792,-7.26956 0.0291,-0.85209 0.0738,-1.92954 0.0994,-2.39434 l 0.0466,-0.84509 1.05111,-0.66814 c 1.78706,-1.13596 2.31887,-1.35786 3.50081,-1.46072 l 1.10123,-0.0958 0,1.46377 c -8.3e-4,4.68566 -0.83621,8.52098 -2.7581,12.66776 -1.56274,3.37183 -4.34595,6.638 -7.01027,8.22674 -0.58513,0.34891 -1.0841,0.6771 -1.10883,0.7293 -0.0247,0.0522 -0.11859,0.0667 -0.20859,0.0321 z m -2.7253,-0.84355 c -0.71747,-0.8775 -1.79848,-2.94934 -2.35754,-4.51842 -0.94376,-2.64882 -1.08476,-5.37875 -0.36929,-7.15015 0.56582,-1.40086 1.69585,-1.67341 2.85866,-0.68948 0.73685,0.62351 0.70409,0.62761 1.94803,-0.2438 0.47898,-0.33554 0.74089,-0.42443 1.09656,-0.37214 0.83019,0.12205 1.53503,1.36492 1.75263,3.09047 0.28758,2.28051 -0.66722,5.72475 -2.4155,8.71334 -1.18427,2.02446 -1.64116,2.23716 -2.51355,1.17018 z m -4.49471,-9.45088 c -0.40091,-0.9713 -0.62766,-1.8585 -0.87615,-3.42811 -0.37345,-2.35892 -0.53528,-6.0155 -0.27319,-6.17312 0.20359,-0.12244 1.53942,1.68802 2.41057,3.26707 l 0.90838,1.6465 -0.26969,0.40891 c -0.95575,1.44907 -1.14543,1.79476 -1.31123,2.38965 -0.10173,0.36499 -0.21239,1.09294 -0.24594,1.61767 l -0.061,0.95407 -0.28177,-0.68264 z m 10.45284,0.30592 c -0.0317,-0.15124 -0.058,-0.47256 -0.0585,-0.71405 -0.002,-1.13514 -0.47775,-2.2981 -1.61242,-3.94371 l -0.21989,-0.31892 0.89936,-1.63365 c 0.8617,-1.56524 1.90491,-3.0054 2.36388,-3.26338 l 0.21643,-0.12166 -0.0544,2.0351 c -0.0833,3.1195 -0.59283,6.23499 -1.27033,7.76804 -0.17542,0.39692 -0.21515,0.42585 -0.26412,0.19223 z m -6.0124,-4.82159 c -0.43212,-0.33546 -0.78609,-0.69303 -0.7866,-0.7946 -0.004,-0.81932 1.11037,-5.55414 1.5252,-6.47974 l 0.18438,-0.41138 0.18884,0.41138 c 0.46613,1.01544 1.56007,5.73617 1.49815,6.46503 -0.0189,0.22302 -0.2497,0.46785 -0.82169,0.87183 -0.43744,0.30895 -0.84198,0.5585 -0.89898,0.55455 -0.057,-0.004 -0.45718,-0.28162 -0.8893,-0.61707 z m -2.08347,-1.94315 c -0.64563,-1.40753 -1.6481,-2.91069 -2.69306,-4.03813 l -0.79766,-0.86061 0.0532,-0.93207 c 0.11839,-2.0733 0.85831,-5.36265 1.58469,-7.04472 l 0.37402,-0.86614 0.42098,0.44569 c 1.23933,1.31212 2.85403,3.78656 3.33093,5.10445 l 0.27425,0.75791 -0.22531,0.81388 c -0.12393,0.44765 -0.39153,1.30947 -0.59468,1.91516 -0.51872,1.5466 -0.78086,2.68314 -1.0092,4.37547 l -0.19755,1.46413 -0.52062,-1.13502 z m 5.32051,-0.25631 c -0.16088,-1.42419 -0.5996,-3.20361 -1.41007,-5.71917 -0.43667,-1.35534 -0.44321,-1.39533 -0.30711,-1.87709 0.32432,-1.148 1.76632,-3.43855 3.28071,-5.21128 l 0.56986,-0.66707 0.32962,0.66771 c 0.38406,0.77796 1.05558,3.0884 1.32615,4.56276 0.10363,0.56475 0.2413,1.59975 0.30591,2.30001 l 0.11749,1.2732 -0.7894,0.85385 c -1.1075,1.19795 -1.73954,2.12752 -2.55927,3.76408 l -0.70979,1.41708 -0.1541,-1.36408 z m -10.9017,-6.15942 c -1.40567,-0.84159 -2.34163,-1.21046 -3.39363,-1.33747 l -0.7866,-0.095 8.4e-4,-0.83955 c 0.002,-2.00438 0.51177,-5.08129 1.28206,-7.7508 l 0.37985,-1.31643 0.4495,0.053 c 0.70668,0.0833 2.03887,0.6288 3.05415,1.25067 0.83546,0.51172 2.08466,1.53604 2.35149,1.92817 0.0716,0.10521 -0.0452,0.55032 -0.39415,1.50307 -0.56566,1.54412 -0.69558,2.05234 -1.2414,4.85614 -0.21644,1.11184 -0.42509,2.11746 -0.46367,2.23472 -0.0547,0.16625 -0.32741,0.0592 -1.23879,-0.48652 z m 15.68976,-0.69874 c -0.65625,-3.36128 -0.95225,-4.58694 -1.41015,-5.83917 -0.26725,-0.73087 -0.46512,-1.42802 -0.43971,-1.54922 0.0657,-0.31362 1.40234,-1.40478 2.54103,-2.07442 0.95124,-0.55939 1.96113,-0.97552 2.86176,-1.17917 l 0.45418,-0.1027 0.50663,1.8622 c 0.75323,2.76858 1.14708,5.24806 1.14708,7.22152 0,0.92675 0.0349,0.89339 -1.11463,1.06636 -0.84409,0.12702 -2.09148,0.66684 -3.35209,1.45067 l -0.91579,0.5694 -0.27831,-1.42547 z m -7.86871,-3.59732 c -0.39555,-0.6008 -1.29724,-1.78428 -2.00376,-2.62995 l -1.28459,-1.53759 0.28994,-0.77959 c 0.54862,-1.4752 2.94832,-5.60953 3.63287,-6.25892 0.15704,-0.14896 0.27925,-0.0472 0.80908,0.67378 0.73703,1.00293 2.98173,5.07746 3.21087,5.82833 l 0.15956,0.52282 -1.28327,1.55472 c -0.7058,0.8551 -1.60245,2.04386 -1.99257,2.64169 -0.39012,0.59783 -0.73398,1.08474 -0.76413,1.08202 -0.0302,-0.002 -0.37845,-0.49652 -0.774,-1.09731 z"
       id="path3338"
       inkscape:connector-curvature="0" />
  </g>
</svg>
